<svg xmlns="http://www.w3.org/2000/svg" version="1.1" xmlns:xlink="http://www.w3.org/1999/xlink" xmlns:svgjs="http://svgjs.com/svgjs" width="850.39" height="850.39"><svg viewBox="0 0 850.39 850.39" style="enable-background:new 0 0 850.39 850.39;" xmlns="http://www.w3.org/2000/svg">
  <defs>
    <style type="text/css">
	.st0{fill:#575756;}
	.st1{fill:#DF991C;}
	.st2{fill:#2CB19B;}
	.st3{fill:none;}
	.st4{fill:none;stroke:#1D1D1B;stroke-width:0.9921;stroke-miterlimit:10;}
	.st5{fill:none;stroke:#1D1D1B;stroke-width:1.2079;stroke-miterlimit:10;}
	.st6{fill:#FFFFFF;}
	.st7{fill:none;stroke:#DF991C;stroke-miterlimit:10;}
	.st8{fill:none;stroke:#DF991C;stroke-width:0.6056;stroke-miterlimit:10;}
	.st9{fill:none;stroke:#DF991C;stroke-width:0.5894;stroke-miterlimit:10;}
	.st10{fill:none;stroke:#DF991C;stroke-width:1.2063;stroke-miterlimit:10;}
	.st11{fill:none;stroke:#DF991C;stroke-width:0.7258;stroke-miterlimit:10;}
	.st12{fill:none;stroke:#DF991C;stroke-width:0.5116;stroke-miterlimit:10;}
</style>
  </defs>
  <g id="SvgjsG1000" style="" transform="matrix(2.889082908630371, 0, 0, 2.889082908630371, -295.4578857421875, -801.1484985351561)">
    <g>
      <path class="st1" d="M295.42,442.02v1.96c0.07-0.65,0.12-1.3,0.14-1.96H295.42z M226.3,465.88c0.13,0.22,0.26,0.44,0.4,0.65 c0.12-0.2,0.25-0.39,0.38-0.59C226.82,465.93,226.57,465.91,226.3,465.88z"></path>
      <path class="st1" d="M295.42,442.02v1.96c0.07-0.65,0.12-1.3,0.14-1.96H295.42z M226.3,465.88c0.13,0.22,0.26,0.44,0.4,0.65 c0.12-0.2,0.25-0.39,0.38-0.59C226.82,465.93,226.57,465.91,226.3,465.88z"></path>
      <path class="st2" d="M314.87,490.15h-0.06c0.01,0.32,0.01,0.63,0.01,0.95c0,26.38-21.38,47.76-47.76,47.76 c-13.64,0-25.95-5.72-34.65-14.89l13.33-13.34c5.23,5.59,12.67,9.09,20.93,9.09c15.82,0,28.66-12.83,28.66-28.66 c0-0.52-0.01-1.04-0.05-1.55c0.05-0.02,0.09-0.04,0.13-0.07v-11.02c-0.75,0.55-1.52,1.09-2.3,1.6 c-7.49,4.89-16.44,7.73-26.06,7.73c-9.87,0-19.05-2.99-26.66-8.13c-5.48-3.69-10.16-8.49-13.69-14.08 c0.12-0.2,0.25-0.39,0.38-0.59c1.4,0.1,2.81,0.15,4.23,0.15c6.21,0,12.19-0.98,17.79-2.8c1.48,1.19,3.09,2.22,4.8,3.09 c3.91,2,8.34,3.13,13.03,3.13c4.59,0,8.92-1.08,12.77-3c6.05-3.02,10.89-8.12,13.57-14.36c1.1-2.55,1.83-5.3,2.14-8.18 c0.07-0.65,0.12-1.3,0.14-1.96c0.02-0.38,0.03-0.77,0.03-1.15c0-7.72-3.05-14.73-8.02-19.88c-2.41-2.5-5.26-4.56-8.43-6.05 c-3.7-1.75-7.84-2.72-12.21-2.72c-2.46,0-4.85,0.31-7.14,0.9c-4.93,1.26-9.35,3.81-12.88,7.26c-0.94,0.91-1.81,1.89-2.61,2.92 c-0.01,0.01-0.01,0.01-0.01,0.01c-3.4,3.08-7.9,4.95-12.84,4.95c-3.52,0-6.81-0.95-9.64-2.61c4.19-12.34,13.29-22.42,24.97-27.89 c2.94-1.39,6.05-2.47,9.27-3.23c1.32-0.31,2.67-0.57,4.03-0.76c2.27-0.34,4.6-0.51,6.97-0.51c3.52,0,6.96,0.38,10.26,1.11 c0.75,0.16,1.49,0.34,2.22,0.55c2.94,0.79,5.76,1.85,8.44,3.16c15.89,7.76,26.84,24.07,26.84,42.95c0,0.34-0.01,0.69-0.01,1.03 h0.06V490.15z"></path>
      <path class="st1" d="M202.77,409.13c0,7.55,2.92,14.42,7.69,19.54c2.58,2.76,5.69,5.01,9.19,6.59c3.59,1.62,7.58,2.53,11.78,2.53 c2.46,0,4.85-0.31,7.13-0.9c5.1-1.31,9.66-3.99,13.25-7.62c0-0.01,0.01-0.01,0.01-0.01c0.66-0.66,1.28-1.36,1.87-2.09 c0.01-0.01,0.01-0.02,0.02-0.03c3.44-3.32,8.11-5.36,13.27-5.36c3.62,0,7,1,9.89,2.75c-2.72,7.76-7.37,14.6-13.4,19.94 c-3.52,3.13-7.52,5.76-11.87,7.74c-2.98,1.36-6.12,2.42-9.39,3.15h-0.01c-2.22,0.5-4.5,0.84-6.83,1.01 c-1.19,0.09-2.39,0.13-3.6,0.13c-3.52,0-6.95-0.38-10.26-1.11h-0.01c-3.93-0.86-7.68-2.21-11.18-3.98 c-15.61-7.85-26.31-24.02-26.31-42.68c0-26.38,21.38-47.76,47.76-47.76c10.6,0,20.4,3.45,28.32,9.3v-60.18h19.44v74.07 c-2.45-0.56-4.96-0.95-7.51-1.17c-1.69-0.15-3.41-0.23-5.14-0.23c-2.3,0-4.56,0.13-6.79,0.4c-4.12,0.49-8.12,1.4-11.93,2.71 c-4.71-3.4-10.49-5.4-16.74-5.4C215.59,380.47,202.77,393.31,202.77,409.13z"></path>
    </g>
  </g>
</svg><style>@media (prefers-color-scheme: light) { :root { filter: contrast(1) brightness(0.7); } }
@media (prefers-color-scheme: dark) { :root { filter: contrast(1) brightness(1.2); } }
</style></svg>