<?xml version="1.0" encoding="UTF-8" standalone="no"?>
<!-- Generator: Adobe Illustrator 25.3.1, SVG Export Plug-In . SVG Version: 6.00 Build 0)  -->

<svg
   version="1.1"
   x="0px"
   y="0px"
   viewBox="0 0 513.60998 247.44999"
   xml:space="preserve"
   id="svg19"
   sodipodi:docname="08.svg"
   width="513.60999"
   height="247.45"
   inkscape:version="1.3 (0e150ed6c4, 2023-07-21)"
   xmlns:inkscape="http://www.inkscape.org/namespaces/inkscape"
   xmlns:sodipodi="http://sodipodi.sourceforge.net/DTD/sodipodi-0.dtd"
   xmlns="http://www.w3.org/2000/svg"
   xmlns:svg="http://www.w3.org/2000/svg"><defs
   id="defs19" /><sodipodi:namedview
   id="namedview19"
   pagecolor="#ffffff"
   bordercolor="#000000"
   borderopacity="0.25"
   inkscape:showpageshadow="2"
   inkscape:pageopacity="0.0"
   inkscape:pagecheckerboard="0"
   inkscape:deskcolor="#d1d1d1"
   inkscape:zoom="1.3064594"
   inkscape:cx="241.10968"
   inkscape:cy="115.19685"
   inkscape:window-width="2560"
   inkscape:window-height="1346"
   inkscape:window-x="-11"
   inkscape:window-y="-11"
   inkscape:window-maximized="1"
   inkscape:current-layer="svg19" />&#10;<style
   type="text/css"
   id="style1">&#10;	.st0{fill:#575756;}&#10;	.st1{fill:#DF991C;}&#10;	.st2{fill:#2CB19B;}&#10;	.st3{fill:none;}&#10;	.st4{fill:none;stroke:#1D1D1B;stroke-width:0.9921;stroke-miterlimit:10;}&#10;	.st5{fill:none;stroke:#1D1D1B;stroke-width:1.2079;stroke-miterlimit:10;}&#10;	.st6{fill:#FFFFFF;}&#10;	.st7{fill:none;stroke:#DF991C;stroke-miterlimit:10;}&#10;	.st8{fill:none;stroke:#DF991C;stroke-width:0.6056;stroke-miterlimit:10;}&#10;	.st9{fill:none;stroke:#DF991C;stroke-width:0.5894;stroke-miterlimit:10;}&#10;	.st10{fill:none;stroke:#DF991C;stroke-width:1.2063;stroke-miterlimit:10;}&#10;	.st11{fill:none;stroke:#DF991C;stroke-width:0.7258;stroke-miterlimit:10;}&#10;	.st12{fill:none;stroke:#DF991C;stroke-width:0.5116;stroke-miterlimit:10;}&#10;</style>&#10;<g
   id="Layer_1"
   transform="translate(-184.01,-310.09)">&#10;	<g
   id="g4">&#10;		<path
   class="st0"
   d="m 351.84,312.09 h 22.24 v 4.96 h -16.82 v 15.61 h 14.67 v 4.89 h -14.67 v 16.55 h 17.55 v 4.9 h -22.98 v -46.91 z"
   id="path1" />&#10;		<path
   class="st0"
   d="m 384.27,312.09 h 5.43 v 42.01 h 17.55 v 4.9 h -22.98 z"
   id="path2" />&#10;		<path
   class="st0"
   d="m 417.77,317.05 h -12.66 v -4.96 h 30.69 v 4.96 H 423.2 V 359 h -5.43 z"
   id="path3" />&#10;		<path
   class="st0"
   d="m 443.9,312.09 h 22.24 v 4.96 h -16.82 v 15.61 H 464 v 4.89 h -14.67 v 16.55 h 17.55 V 359 H 443.9 Z"
   id="path4" />&#10;	</g>&#10;	<g
   id="g8">&#10;		<path
   class="st0"
   d="m 399.9,452.5 h -11.67 v -4.85 c -1.26,1.53 -5.92,6.01 -13.91,6.01 -13.46,0 -22.98,-10.14 -22.98,-24.59 0,-14.54 8.79,-24.68 22.26,-24.68 8.08,0 12.75,4.49 13.91,6.1 V 387.6 h 12.39 z m -24.05,-37.16 c -7.18,0 -12.03,5.65 -12.03,13.82 0,8.35 5.03,13.55 12.03,13.55 7.54,0 12.03,-6.1 12.03,-13.55 0,-8.79 -5.21,-13.82 -12.03,-13.82 z"
   id="path5" />&#10;		<path
   class="st0"
   d="m 425.84,422.43 c 4.76,0 8.44,1.44 10.14,2.6 v -3.05 c 0,-4.13 -3.05,-6.91 -8.53,-6.91 -4.67,0 -8.98,1.53 -12.48,3.32 l -4.67,-8.44 c 4.22,-2.87 11.31,-5.56 18.49,-5.56 15.08,0 19.57,7.9 19.57,18.4 v 29.71 h -10.95 l -0.81,-3.05 c -2.42,2.6 -6.01,4.22 -11.4,4.22 -9.51,0 -17.59,-5.83 -17.59,-15.71 0.01,-9.25 7.28,-15.53 18.23,-15.53 z m 2.34,21.63 c 4.67,0 8.08,-2.51 8.08,-6.46 0,-4.13 -3.41,-6.55 -8.17,-6.55 -4.76,0 -8.08,2.69 -8.08,6.55 0,3.86 3.5,6.46 8.17,6.46 z"
   id="path6" />&#10;		<path
   class="st0"
   d="m 459.41,395.69 h 12.21 v 9.87 h 8.8 v 10.05 h -8.8 v 18.13 c 0,7 2.15,8.44 6.91,8.44 0.81,0 1.26,0 2.24,-0.09 v 10.59 c 0,0 -1.88,0.45 -5.29,0.45 -11.22,0 -16.16,-6.28 -16.16,-19.03 v -18.49 h -4.94 v -10.05 h 5.03 z"
   id="path7" />&#10;		<path
   class="st0"
   d="m 504.38,422.43 c 4.76,0 8.44,1.44 10.14,2.6 v -3.05 c 0,-4.13 -3.05,-6.91 -8.53,-6.91 -4.67,0 -8.98,1.53 -12.48,3.32 l -4.67,-8.44 c 4.22,-2.87 11.31,-5.56 18.49,-5.56 15.08,0 19.57,7.9 19.57,18.4 v 29.71 h -10.95 l -0.81,-3.05 c -2.42,2.6 -6.01,4.22 -11.4,4.22 -9.51,0 -17.59,-5.83 -17.59,-15.71 0.01,-9.25 7.28,-15.53 18.23,-15.53 z m 2.33,21.63 c 4.67,0 8.08,-2.51 8.08,-6.46 0,-4.13 -3.41,-6.55 -8.17,-6.55 -4.76,0 -8.08,2.69 -8.08,6.55 0,3.86 3.5,6.46 8.17,6.46 z"
   id="path8" />&#10;	</g>&#10;	<g
   id="g15">&#10;		<path
   class="st0"
   d="m 356.64,499.64 h -5.21 v -6.01 h 5.21 v -2.42 c 0,-11.76 7.09,-15.53 14.63,-15.53 1.53,0 2.96,0.18 2.96,0.18 v 6.19 c 0,0 -1.17,-0.18 -2.24,-0.18 -5.29,0 -8.17,2.87 -8.17,9.33 v 2.42 h 9.96 v 6.01 h -9.96 v 40.66 h -7.18 z"
   id="path9" />&#10;		<path
   class="st0"
   d="m 402.15,492.46 c 14.09,0 24.32,10.5 24.32,24.5 0,14 -10.41,24.5 -24.41,24.5 -14,0 -24.32,-10.32 -24.32,-24.5 0,-14.09 10.5,-24.5 24.41,-24.5 z M 402.06,535 c 10.05,0 17.23,-7.63 17.23,-18.04 0,-10.32 -7.18,-18.04 -17.23,-18.04 -10.05,0 -17.05,7.81 -17.05,18.04 0,10.51 7.09,18.04 17.05,18.04 z"
   id="path10" />&#10;		<path
   class="st0"
   d="m 456.63,499.55 c -10.68,0 -13.82,8.44 -13.82,18.4 v 22.35 h -7.09 v -46.67 h 7 v 7.81 c 1.62,-4.67 6.82,-8.97 13.91,-8.97 z"
   id="path11" />&#10;		<path
   class="st0"
   d="m 493.07,543.71 c 1.53,0.81 6.91,3.23 13.37,3.23 6.73,0 12.92,-2.06 12.92,-9.33 v -2.15 c -0.99,1.35 -5.56,6.01 -13.73,6.01 -13.55,0 -22.44,-10.14 -22.44,-24.59 0,-14.45 9.51,-24.68 22.89,-24.68 7.9,0 12.66,4.31 14,6.1 v -4.94 h 11.67 v 41.02 c 0,17.5 -11.4,23.16 -25.22,23.16 -6.46,0 -13.01,-1.97 -17.23,-4.31 z m 14.54,-40.57 c -7,0 -11.94,5.38 -11.94,13.64 0,8.26 5.03,13.73 12.03,13.73 7.18,0 12.03,-5.38 12.03,-13.73 0,-7.98 -4.85,-13.64 -12.12,-13.64 z"
   id="path12" />&#10;		<path
   class="st0"
   d="m 563.88,492.19 c 14.36,0 25.31,10.59 25.31,24.77 0,14.18 -10.59,24.5 -25.31,24.5 -14.63,0 -25.22,-10.32 -25.22,-24.5 0,-14.27 10.95,-24.77 25.22,-24.77 z m 0,38.33 c 7.45,0 12.92,-5.56 12.92,-13.55 0,-7.99 -5.47,-13.82 -12.92,-13.82 -7.45,0 -12.83,5.74 -12.83,13.82 0,7.98 5.47,13.55 12.83,13.55 z"
   id="path13" />&#10;		<path
   class="st0"
   d="m 619.08,492.19 c 14.36,0 25.31,10.59 25.31,24.77 0,14.18 -10.59,24.5 -25.31,24.5 -14.63,0 -25.22,-10.32 -25.22,-24.5 0,-14.27 10.95,-24.77 25.22,-24.77 z m 0,38.33 c 7.45,0 12.92,-5.56 12.92,-13.55 0,-7.99 -5.47,-13.82 -12.92,-13.82 -7.45,0 -12.83,5.74 -12.83,13.82 0,7.98 5.47,13.55 12.83,13.55 z"
   id="path14" />&#10;		<path
   class="st0"
   d="m 697.62,540.3 h -11.67 v -4.85 c -1.26,1.53 -5.92,6.01 -13.91,6.01 -13.46,0 -22.98,-10.14 -22.98,-24.59 0,-14.54 8.79,-24.68 22.26,-24.68 8.08,0 12.75,4.49 13.91,6.1 V 475.4 h 12.39 z m -24.06,-37.16 c -7.18,0 -12.03,5.65 -12.03,13.82 0,8.35 5.03,13.55 12.03,13.55 7.54,0 12.03,-6.1 12.03,-13.55 0,-8.79 -5.2,-13.82 -12.03,-13.82 z"
   id="path15" />&#10;	</g>&#10;</g>&#10;<g
   id="Layer_2"
   transform="translate(-184.01,-310.09)">&#10;	<g
   id="g19">&#10;		<path
   class="st1"
   d="m 295.42,442.02 v 1.96 c 0.07,-0.65 0.12,-1.3 0.14,-1.96 z m -69.12,23.86 c 0.13,0.22 0.26,0.44 0.4,0.65 0.12,-0.2 0.25,-0.39 0.38,-0.59 -0.26,-0.01 -0.51,-0.03 -0.78,-0.06 z"
   id="path16" />&#10;		<path
   class="st1"
   d="m 295.42,442.02 v 1.96 c 0.07,-0.65 0.12,-1.3 0.14,-1.96 z m -69.12,23.86 c 0.13,0.22 0.26,0.44 0.4,0.65 0.12,-0.2 0.25,-0.39 0.38,-0.59 -0.26,-0.01 -0.51,-0.03 -0.78,-0.06 z"
   id="path17" />&#10;		<path
   class="st2"
   d="m 314.87,490.15 h -0.06 c 0.01,0.32 0.01,0.63 0.01,0.95 0,26.38 -21.38,47.76 -47.76,47.76 -13.64,0 -25.95,-5.72 -34.65,-14.89 l 13.33,-13.34 c 5.23,5.59 12.67,9.09 20.93,9.09 15.82,0 28.66,-12.83 28.66,-28.66 0,-0.52 -0.01,-1.04 -0.05,-1.55 0.05,-0.02 0.09,-0.04 0.13,-0.07 v -11.02 c -0.75,0.55 -1.52,1.09 -2.3,1.6 -7.49,4.89 -16.44,7.73 -26.06,7.73 -9.87,0 -19.05,-2.99 -26.66,-8.13 -5.48,-3.69 -10.16,-8.49 -13.69,-14.08 0.12,-0.2 0.25,-0.39 0.38,-0.59 1.4,0.1 2.81,0.15 4.23,0.15 6.21,0 12.19,-0.98 17.79,-2.8 1.48,1.19 3.09,2.22 4.8,3.09 3.91,2 8.34,3.13 13.03,3.13 4.59,0 8.92,-1.08 12.77,-3 6.05,-3.02 10.89,-8.12 13.57,-14.36 1.1,-2.55 1.83,-5.3 2.14,-8.18 0.07,-0.65 0.12,-1.3 0.14,-1.96 0.02,-0.38 0.03,-0.77 0.03,-1.15 0,-7.72 -3.05,-14.73 -8.02,-19.88 -2.41,-2.5 -5.26,-4.56 -8.43,-6.05 -3.7,-1.75 -7.84,-2.72 -12.21,-2.72 -2.46,0 -4.85,0.31 -7.14,0.9 -4.93,1.26 -9.35,3.81 -12.88,7.26 -0.94,0.91 -1.81,1.89 -2.61,2.92 -0.01,0.01 -0.01,0.01 -0.01,0.01 -3.4,3.08 -7.9,4.95 -12.84,4.95 -3.52,0 -6.81,-0.95 -9.64,-2.61 4.19,-12.34 13.29,-22.42 24.97,-27.89 2.94,-1.39 6.05,-2.47 9.27,-3.23 1.32,-0.31 2.67,-0.57 4.03,-0.76 2.27,-0.34 4.6,-0.51 6.97,-0.51 3.52,0 6.96,0.38 10.26,1.11 0.75,0.16 1.49,0.34 2.22,0.55 2.94,0.79 5.76,1.85 8.44,3.16 15.89,7.76 26.84,24.07 26.84,42.95 0,0.34 -0.01,0.69 -0.01,1.03 h 0.06 v 49.09 z"
   id="path18" />&#10;		<path
   class="st1"
   d="m 202.77,409.13 c 0,7.55 2.92,14.42 7.69,19.54 2.58,2.76 5.69,5.01 9.19,6.59 3.59,1.62 7.58,2.53 11.78,2.53 2.46,0 4.85,-0.31 7.13,-0.9 5.1,-1.31 9.66,-3.99 13.25,-7.62 0,-0.01 0.01,-0.01 0.01,-0.01 0.66,-0.66 1.28,-1.36 1.87,-2.09 0.01,-0.01 0.01,-0.02 0.02,-0.03 3.44,-3.32 8.11,-5.36 13.27,-5.36 3.62,0 7,1 9.89,2.75 -2.72,7.76 -7.37,14.6 -13.4,19.94 -3.52,3.13 -7.52,5.76 -11.87,7.74 -2.98,1.36 -6.12,2.42 -9.39,3.15 h -0.01 c -2.22,0.5 -4.5,0.84 -6.83,1.01 -1.19,0.09 -2.39,0.13 -3.6,0.13 -3.52,0 -6.95,-0.38 -10.26,-1.11 h -0.01 c -3.93,-0.86 -7.68,-2.21 -11.18,-3.98 -15.61,-7.85 -26.31,-24.02 -26.31,-42.68 0,-26.38 21.38,-47.76 47.76,-47.76 10.6,0 20.4,3.45 28.32,9.3 v -60.18 h 19.44 v 74.07 c -2.45,-0.56 -4.96,-0.95 -7.51,-1.17 -1.69,-0.15 -3.41,-0.23 -5.14,-0.23 -2.3,0 -4.56,0.13 -6.79,0.4 -4.12,0.49 -8.12,1.4 -11.93,2.71 -4.71,-3.4 -10.49,-5.4 -16.74,-5.4 -15.83,0 -28.65,12.84 -28.65,28.66 z"
   id="path19" />&#10;	</g>&#10;</g>&#10;</svg>
