<?xml version="1.0" encoding="utf-8"?>
<!-- Generator: Adobe Illustrator 25.3.1, SVG Export Plug-In . SVG Version: 6.00 Build 0)  -->
<svg version="1.1" xmlns="http://www.w3.org/2000/svg" xmlns:xlink="http://www.w3.org/1999/xlink" x="0px" y="0px"
	 viewBox="0 0 850.39 850.39" style="enable-background:new 0 0 850.39 850.39;" xml:space="preserve">
<style type="text/css">
	.st0{fill:#575756;}
	.st1{fill:#DF991C;}
	.st2{fill:#2CB19B;}
	.st3{fill:none;}
	.st4{fill:none;stroke:#1D1D1B;stroke-width:0.9921;stroke-miterlimit:10;}
	.st5{fill:none;stroke:#1D1D1B;stroke-width:1.2079;stroke-miterlimit:10;}
	.st6{fill:#FFFFFF;}
	.st7{fill:none;stroke:#DF991C;stroke-miterlimit:10;}
	.st8{fill:none;stroke:#DF991C;stroke-width:0.6056;stroke-miterlimit:10;}
	.st9{fill:none;stroke:#DF991C;stroke-width:0.5894;stroke-miterlimit:10;}
	.st10{fill:none;stroke:#DF991C;stroke-width:1.2063;stroke-miterlimit:10;}
	.st11{fill:none;stroke:#DF991C;stroke-width:0.7258;stroke-miterlimit:10;}
	.st12{fill:none;stroke:#DF991C;stroke-width:0.5116;stroke-miterlimit:10;}
</style>
<g id="Layer_1">
	<g>
		<path class="st0" d="M351.84,312.09h22.24v4.96h-16.82v15.61h14.67v4.89h-14.67v16.55h17.55V359h-22.98V312.09z"/>
		<path class="st0" d="M384.27,312.09h5.43v42.01h17.55V359h-22.98V312.09z"/>
		<path class="st0" d="M417.77,317.05h-12.66v-4.96h30.69v4.96h-12.6V359h-5.43V317.05z"/>
		<path class="st0" d="M443.9,312.09h22.24v4.96h-16.82v15.61H464v4.89h-14.67v16.55h17.55V359H443.9V312.09z"/>
	</g>
	<g>
		<path class="st0" d="M399.9,452.5h-11.67v-4.85c-1.26,1.53-5.92,6.01-13.91,6.01c-13.46,0-22.98-10.14-22.98-24.59
			c0-14.54,8.79-24.68,22.26-24.68c8.08,0,12.75,4.49,13.91,6.1v-22.89h12.39V452.5z M375.85,415.34c-7.18,0-12.03,5.65-12.03,13.82
			c0,8.35,5.03,13.55,12.03,13.55c7.54,0,12.03-6.1,12.03-13.55C387.88,420.37,382.67,415.34,375.85,415.34z"/>
		<path class="st0" d="M425.84,422.43c4.76,0,8.44,1.44,10.14,2.6v-3.05c0-4.13-3.05-6.91-8.53-6.91c-4.67,0-8.98,1.53-12.48,3.32
			l-4.67-8.44c4.22-2.87,11.31-5.56,18.49-5.56c15.08,0,19.57,7.9,19.57,18.4v29.71h-10.95l-0.81-3.05
			c-2.42,2.6-6.01,4.22-11.4,4.22c-9.51,0-17.59-5.83-17.59-15.71C407.62,428.71,414.89,422.43,425.84,422.43z M428.18,444.06
			c4.67,0,8.08-2.51,8.08-6.46c0-4.13-3.41-6.55-8.17-6.55s-8.08,2.69-8.08,6.55S423.51,444.06,428.18,444.06z"/>
		<path class="st0" d="M459.41,395.69h12.21v9.87h8.8v10.05h-8.8v18.13c0,7,2.15,8.44,6.91,8.44c0.81,0,1.26,0,2.24-0.09v10.59
			c0,0-1.88,0.45-5.29,0.45c-11.22,0-16.16-6.28-16.16-19.03v-18.49h-4.94v-10.05h5.03V395.69z"/>
		<path class="st0" d="M504.38,422.43c4.76,0,8.44,1.44,10.14,2.6v-3.05c0-4.13-3.05-6.91-8.53-6.91c-4.67,0-8.98,1.53-12.48,3.32
			l-4.67-8.44c4.22-2.87,11.31-5.56,18.49-5.56c15.08,0,19.57,7.9,19.57,18.4v29.71h-10.95l-0.81-3.05
			c-2.42,2.6-6.01,4.22-11.4,4.22c-9.51,0-17.59-5.83-17.59-15.71C486.16,428.71,493.43,422.43,504.38,422.43z M506.71,444.06
			c4.67,0,8.08-2.51,8.08-6.46c0-4.13-3.41-6.55-8.17-6.55s-8.08,2.69-8.08,6.55S502.04,444.06,506.71,444.06z"/>
	</g>
	<g>
		<path class="st0" d="M356.64,499.64h-5.21v-6.01h5.21v-2.42c0-11.76,7.09-15.53,14.63-15.53c1.53,0,2.96,0.18,2.96,0.18v6.19
			c0,0-1.17-0.18-2.24-0.18c-5.29,0-8.17,2.87-8.17,9.33v2.42h9.96v6.01h-9.96v40.66h-7.18V499.64z"/>
		<path class="st0" d="M402.15,492.46c14.09,0,24.32,10.5,24.32,24.5c0,14-10.41,24.5-24.41,24.5c-14,0-24.32-10.32-24.32-24.5
			C377.74,502.87,388.24,492.46,402.15,492.46z M402.06,535c10.05,0,17.23-7.63,17.23-18.04c0-10.32-7.18-18.04-17.23-18.04
			c-10.05,0-17.05,7.81-17.05,18.04C385.01,527.47,392.1,535,402.06,535z"/>
		<path class="st0" d="M456.63,499.55c-10.68,0-13.82,8.44-13.82,18.4v22.35h-7.09v-46.67h7v7.81c1.62-4.67,6.82-8.97,13.91-8.97
			V499.55z"/>
		<path class="st0" d="M493.07,543.71c1.53,0.81,6.91,3.23,13.37,3.23c6.73,0,12.92-2.06,12.92-9.33v-2.15
			c-0.99,1.35-5.56,6.01-13.73,6.01c-13.55,0-22.44-10.14-22.44-24.59s9.51-24.68,22.89-24.68c7.9,0,12.66,4.31,14,6.1v-4.94h11.67
			v41.02c0,17.5-11.4,23.16-25.22,23.16c-6.46,0-13.01-1.97-17.23-4.31L493.07,543.71z M507.61,503.14c-7,0-11.94,5.38-11.94,13.64
			c0,8.26,5.03,13.73,12.03,13.73c7.18,0,12.03-5.38,12.03-13.73C519.73,508.8,514.88,503.14,507.61,503.14z"/>
		<path class="st0" d="M563.88,492.19c14.36,0,25.31,10.59,25.31,24.77s-10.59,24.5-25.31,24.5c-14.63,0-25.22-10.32-25.22-24.5
			C538.66,502.69,549.61,492.19,563.88,492.19z M563.88,530.52c7.45,0,12.92-5.56,12.92-13.55s-5.47-13.82-12.92-13.82
			c-7.45,0-12.83,5.74-12.83,13.82C551.05,524.95,556.52,530.52,563.88,530.52z"/>
		<path class="st0" d="M619.08,492.19c14.36,0,25.31,10.59,25.31,24.77s-10.59,24.5-25.31,24.5c-14.63,0-25.22-10.32-25.22-24.5
			C593.86,502.69,604.81,492.19,619.08,492.19z M619.08,530.52c7.45,0,12.92-5.56,12.92-13.55s-5.47-13.82-12.92-13.82
			c-7.45,0-12.83,5.74-12.83,13.82C606.25,524.95,611.72,530.52,619.08,530.52z"/>
		<path class="st0" d="M697.62,540.3h-11.67v-4.85c-1.26,1.53-5.92,6.01-13.91,6.01c-13.46,0-22.98-10.14-22.98-24.59
			c0-14.54,8.79-24.68,22.26-24.68c8.08,0,12.75,4.49,13.91,6.1v-22.89h12.39V540.3z M673.56,503.14c-7.18,0-12.03,5.65-12.03,13.82
			c0,8.35,5.03,13.55,12.03,13.55c7.54,0,12.03-6.1,12.03-13.55C685.59,508.17,680.39,503.14,673.56,503.14z"/>
	</g>
</g>
<g id="Layer_2">
	<g>
		<path class="st1" d="M295.42,442.02v1.96c0.07-0.65,0.12-1.3,0.14-1.96H295.42z M226.3,465.88c0.13,0.22,0.26,0.44,0.4,0.65
			c0.12-0.2,0.25-0.39,0.38-0.59C226.82,465.93,226.57,465.91,226.3,465.88z"/>
		<path class="st1" d="M295.42,442.02v1.96c0.07-0.65,0.12-1.3,0.14-1.96H295.42z M226.3,465.88c0.13,0.22,0.26,0.44,0.4,0.65
			c0.12-0.2,0.25-0.39,0.38-0.59C226.82,465.93,226.57,465.91,226.3,465.88z"/>
		<path class="st2" d="M314.87,490.15h-0.06c0.01,0.32,0.01,0.63,0.01,0.95c0,26.38-21.38,47.76-47.76,47.76
			c-13.64,0-25.95-5.72-34.65-14.89l13.33-13.34c5.23,5.59,12.67,9.09,20.93,9.09c15.82,0,28.66-12.83,28.66-28.66
			c0-0.52-0.01-1.04-0.05-1.55c0.05-0.02,0.09-0.04,0.13-0.07v-11.02c-0.75,0.55-1.52,1.09-2.3,1.6
			c-7.49,4.89-16.44,7.73-26.06,7.73c-9.87,0-19.05-2.99-26.66-8.13c-5.48-3.69-10.16-8.49-13.69-14.08
			c0.12-0.2,0.25-0.39,0.38-0.59c1.4,0.1,2.81,0.15,4.23,0.15c6.21,0,12.19-0.98,17.79-2.8c1.48,1.19,3.09,2.22,4.8,3.09
			c3.91,2,8.34,3.13,13.03,3.13c4.59,0,8.92-1.08,12.77-3c6.05-3.02,10.89-8.12,13.57-14.36c1.1-2.55,1.83-5.3,2.14-8.18
			c0.07-0.65,0.12-1.3,0.14-1.96c0.02-0.38,0.03-0.77,0.03-1.15c0-7.72-3.05-14.73-8.02-19.88c-2.41-2.5-5.26-4.56-8.43-6.05
			c-3.7-1.75-7.84-2.72-12.21-2.72c-2.46,0-4.85,0.31-7.14,0.9c-4.93,1.26-9.35,3.81-12.88,7.26c-0.94,0.91-1.81,1.89-2.61,2.92
			c-0.01,0.01-0.01,0.01-0.01,0.01c-3.4,3.08-7.9,4.95-12.84,4.95c-3.52,0-6.81-0.95-9.64-2.61c4.19-12.34,13.29-22.42,24.97-27.89
			c2.94-1.39,6.05-2.47,9.27-3.23c1.32-0.31,2.67-0.57,4.03-0.76c2.27-0.34,4.6-0.51,6.97-0.51c3.52,0,6.96,0.38,10.26,1.11
			c0.75,0.16,1.49,0.34,2.22,0.55c2.94,0.79,5.76,1.85,8.44,3.16c15.89,7.76,26.84,24.07,26.84,42.95c0,0.34-0.01,0.69-0.01,1.03
			h0.06V490.15z"/>
		<path class="st1" d="M202.77,409.13c0,7.55,2.92,14.42,7.69,19.54c2.58,2.76,5.69,5.01,9.19,6.59c3.59,1.62,7.58,2.53,11.78,2.53
			c2.46,0,4.85-0.31,7.13-0.9c5.1-1.31,9.66-3.99,13.25-7.62c0-0.01,0.01-0.01,0.01-0.01c0.66-0.66,1.28-1.36,1.87-2.09
			c0.01-0.01,0.01-0.02,0.02-0.03c3.44-3.32,8.11-5.36,13.27-5.36c3.62,0,7,1,9.89,2.75c-2.72,7.76-7.37,14.6-13.4,19.94
			c-3.52,3.13-7.52,5.76-11.87,7.74c-2.98,1.36-6.12,2.42-9.39,3.15h-0.01c-2.22,0.5-4.5,0.84-6.83,1.01
			c-1.19,0.09-2.39,0.13-3.6,0.13c-3.52,0-6.95-0.38-10.26-1.11h-0.01c-3.93-0.86-7.68-2.21-11.18-3.98
			c-15.61-7.85-26.31-24.02-26.31-42.68c0-26.38,21.38-47.76,47.76-47.76c10.6,0,20.4,3.45,28.32,9.3v-60.18h19.44v74.07
			c-2.45-0.56-4.96-0.95-7.51-1.17c-1.69-0.15-3.41-0.23-5.14-0.23c-2.3,0-4.56,0.13-6.79,0.4c-4.12,0.49-8.12,1.4-11.93,2.71
			c-4.71-3.4-10.49-5.4-16.74-5.4C215.59,380.47,202.77,393.31,202.77,409.13z"/>
	</g>
</g>
</svg>
