<?xml version="1.0" encoding="utf-8"?>
<!-- Generator: Adobe Illustrator 25.3.1, SVG Export Plug-In . SVG Version: 6.00 Build 0)  -->
<svg version="1.1" xmlns="http://www.w3.org/2000/svg" xmlns:xlink="http://www.w3.org/1999/xlink" x="0px" y="0px"
	 viewBox="0 0 850.39 850.39" style="enable-background:new 0 0 850.39 850.39;" xml:space="preserve">
<style type="text/css">
	.st0{fill:#575756;}
	.st1{fill:#DF991C;}
	.st2{fill:#2CB19B;}
	.st3{fill:none;}
	.st4{fill:none;stroke:#1D1D1B;stroke-width:0.9921;stroke-miterlimit:10;}
	.st5{fill:none;stroke:#1D1D1B;stroke-width:1.2079;stroke-miterlimit:10;}
	.st6{fill:#FFFFFF;}
	.st7{fill:none;stroke:#DF991C;stroke-miterlimit:10;}
	.st8{fill:none;stroke:#DF991C;stroke-width:0.6056;stroke-miterlimit:10;}
	.st9{fill:none;stroke:#DF991C;stroke-width:0.5894;stroke-miterlimit:10;}
	.st10{fill:none;stroke:#DF991C;stroke-width:1.2063;stroke-miterlimit:10;}
	.st11{fill:none;stroke:#DF991C;stroke-width:0.7258;stroke-miterlimit:10;}
	.st12{fill:none;stroke:#DF991C;stroke-width:0.5116;stroke-miterlimit:10;}
</style>
<g id="Layer_1">
	<g>
		<path class="st0" d="M77.34,537.79h22.57v5.03H82.85v15.84h14.89v4.96H82.85v16.79h17.81v4.96H77.34V537.79z"/>
		<path class="st0" d="M110.24,537.79h5.51v42.62h17.81v4.96h-23.32V537.79z"/>
		<path class="st0" d="M144.23,542.82h-12.85v-5.03h31.13v5.03h-12.78v42.55h-5.51V542.82z"/>
		<path class="st0" d="M170.74,537.79h22.57v5.03h-17.06v15.84h14.89v4.96h-14.89v16.79h17.81v4.96h-23.32V537.79z"/>
	</g>
	<g>
		<path class="st0" d="M270.85,585.33h-11.67v-4.85c-1.26,1.53-5.92,6.01-13.91,6.01c-13.46,0-22.98-10.14-22.98-24.59
			c0-14.54,8.79-24.68,22.26-24.68c8.08,0,12.75,4.49,13.91,6.1v-22.89h12.39V585.33z M246.8,548.17c-7.18,0-12.03,5.65-12.03,13.82
			c0,8.35,5.03,13.55,12.03,13.55c7.54,0,12.03-6.1,12.03-13.55C258.83,553.2,253.62,548.17,246.8,548.17z"/>
		<path class="st0" d="M296.79,555.26c4.76,0,8.44,1.44,10.14,2.6v-3.05c0-4.13-3.05-6.91-8.53-6.91c-4.67,0-8.98,1.53-12.48,3.32
			l-4.67-8.44c4.22-2.87,11.31-5.56,18.49-5.56c15.08,0,19.57,7.9,19.57,18.4v29.71h-10.95l-0.81-3.05
			c-2.42,2.6-6.01,4.22-11.4,4.22c-9.51,0-17.59-5.83-17.59-15.71C278.57,561.54,285.84,555.26,296.79,555.26z M299.13,576.89
			c4.67,0,8.08-2.51,8.08-6.46c0-4.13-3.41-6.55-8.17-6.55s-8.08,2.69-8.08,6.55S294.46,576.89,299.13,576.89z"/>
		<path class="st0" d="M330.36,528.51h12.21v9.87h8.8v10.05h-8.8v18.13c0,7,2.15,8.44,6.91,8.44c0.81,0,1.26,0,2.24-0.09v10.59
			c0,0-1.88,0.45-5.29,0.45c-11.22,0-16.16-6.28-16.16-19.03v-18.49h-4.94v-10.05h5.03V528.51z"/>
		<path class="st0" d="M375.33,555.26c4.76,0,8.44,1.44,10.14,2.6v-3.05c0-4.13-3.05-6.91-8.53-6.91c-4.67,0-8.98,1.53-12.48,3.32
			l-4.67-8.44c4.22-2.87,11.31-5.56,18.49-5.56c15.08,0,19.57,7.9,19.57,18.4v29.71h-10.95l-0.81-3.05
			c-2.42,2.6-6.01,4.22-11.4,4.22c-9.51,0-17.59-5.83-17.59-15.71C357.11,561.54,364.38,555.26,375.33,555.26z M377.66,576.89
			c4.67,0,8.08-2.51,8.08-6.46c0-4.13-3.41-6.55-8.17-6.55s-8.08,2.69-8.08,6.55S372.99,576.89,377.66,576.89z"/>
	</g>
	<g>
		<path class="st0" d="M432.87,544.72h-5.21v-6.01h5.21v-2.42c0-11.76,7.09-15.53,14.63-15.53c1.53,0,2.96,0.18,2.96,0.18v6.19
			c0,0-1.17-0.18-2.24-0.18c-5.29,0-8.17,2.87-8.17,9.33v2.42h9.96v6.01h-9.96v40.66h-7.18V544.72z"/>
		<path class="st0" d="M478.37,537.54c14.09,0,24.32,10.5,24.32,24.5c0,14-10.41,24.5-24.41,24.5c-14,0-24.32-10.32-24.32-24.5
			C453.96,547.95,464.46,537.54,478.37,537.54z M478.29,580.08c10.05,0,17.23-7.63,17.23-18.04c0-10.32-7.18-18.04-17.23-18.04
			c-10.05,0-17.05,7.81-17.05,18.04C461.23,572.54,468.32,580.08,478.29,580.08z"/>
		<path class="st0" d="M532.86,544.63c-10.68,0-13.82,8.44-13.82,18.4v22.35h-7.09v-46.67h7v7.81c1.62-4.67,6.82-8.97,13.91-8.97
			V544.63z"/>
		<path class="st0" d="M569.3,588.79c1.53,0.81,6.91,3.23,13.37,3.23c6.73,0,12.92-2.06,12.92-9.33v-2.15
			c-0.99,1.35-5.56,6.01-13.73,6.01c-13.55,0-22.44-10.14-22.44-24.59s9.51-24.68,22.89-24.68c7.9,0,12.66,4.31,14,6.1v-4.94h11.67
			v41.02c0,17.5-11.4,23.16-25.22,23.16c-6.46,0-13.01-1.97-17.23-4.31L569.3,588.79z M583.84,548.22c-7,0-11.94,5.38-11.94,13.64
			c0,8.26,5.03,13.73,12.03,13.73c7.18,0,12.03-5.38,12.03-13.73C595.95,553.87,591.11,548.22,583.84,548.22z"/>
		<path class="st0" d="M640.11,537.27c14.36,0,25.31,10.59,25.31,24.77s-10.59,24.5-25.31,24.5c-14.63,0-25.22-10.32-25.22-24.5
			C614.89,547.77,625.84,537.27,640.11,537.27z M640.11,575.59c7.45,0,12.92-5.56,12.92-13.55s-5.47-13.82-12.92-13.82
			c-7.45,0-12.83,5.74-12.83,13.82C627.28,570.03,632.75,575.59,640.11,575.59z"/>
		<path class="st0" d="M695.31,537.27c14.36,0,25.31,10.59,25.31,24.77s-10.59,24.5-25.31,24.5c-14.63,0-25.22-10.32-25.22-24.5
			C670.09,547.77,681.04,537.27,695.31,537.27z M695.31,575.59c7.45,0,12.92-5.56,12.92-13.55s-5.47-13.82-12.92-13.82
			c-7.45,0-12.83,5.74-12.83,13.82C682.48,570.03,687.95,575.59,695.31,575.59z"/>
		<path class="st0" d="M773.84,585.38h-11.67v-4.85c-1.26,1.53-5.92,6.01-13.91,6.01c-13.46,0-22.98-10.14-22.98-24.59
			c0-14.54,8.79-24.68,22.26-24.68c8.08,0,12.75,4.49,13.91,6.1v-22.89h12.39V585.38z M749.79,548.22
			c-7.18,0-12.03,5.65-12.03,13.82c0,8.35,5.03,13.55,12.03,13.55c7.54,0,12.03-6.1,12.03-13.55
			C761.82,553.25,756.61,548.22,749.79,548.22z"/>
	</g>
</g>
<g id="Layer_2">
	<g>
		<path class="st1" d="M462.5,350.46v2.69c0.1-0.89,0.17-1.79,0.19-2.69H462.5z M367.61,383.22c0.18,0.31,0.36,0.6,0.56,0.9
			c0.17-0.27,0.34-0.54,0.52-0.8C368.32,383.29,367.97,383.26,367.61,383.22z"/>
		<path class="st1" d="M462.5,350.46v2.69c0.1-0.89,0.17-1.79,0.19-2.69H462.5z M367.61,383.22c0.18,0.31,0.36,0.6,0.56,0.9
			c0.17-0.27,0.34-0.54,0.52-0.8C368.32,383.29,367.97,383.26,367.61,383.22z"/>
		<path class="st2" d="M489.2,416.54h-0.08c0.02,0.43,0.02,0.87,0.02,1.3c0,36.21-29.36,65.56-65.57,65.56
			c-18.73,0-35.62-7.85-47.57-20.44l18.3-18.31c7.18,7.68,17.39,12.48,28.74,12.48c21.72,0,39.34-17.62,39.34-39.34
			c0-0.71-0.02-1.42-0.06-2.13c0.06-0.03,0.13-0.06,0.19-0.1v-15.13c-1.03,0.76-2.08,1.49-3.16,2.19
			c-10.29,6.71-22.58,10.61-35.78,10.61c-13.55,0-26.16-4.11-36.6-11.16c-7.52-5.07-13.94-11.66-18.8-19.33
			c0.17-0.27,0.34-0.54,0.52-0.8c1.92,0.14,3.86,0.21,5.81,0.21c8.53,0,16.74-1.35,24.43-3.85c2.04,1.63,4.25,3.05,6.59,4.25
			c5.37,2.75,11.45,4.29,17.88,4.29c6.3,0,12.25-1.48,17.53-4.12c8.31-4.15,14.95-11.15,18.63-19.72c1.51-3.51,2.52-7.28,2.94-11.23
			c0.1-0.89,0.17-1.79,0.19-2.69c0.03-0.53,0.04-1.05,0.04-1.58c0-10.6-4.19-20.23-11.01-27.29c-3.3-3.43-7.22-6.25-11.57-8.31
			c-5.08-2.4-10.76-3.74-16.76-3.74c-3.38,0-6.66,0.43-9.8,1.23c-6.76,1.73-12.83,5.23-17.68,9.96c-1.29,1.25-2.48,2.59-3.58,4.01
			c-0.01,0.01-0.01,0.01-0.01,0.01c-4.66,4.23-10.84,6.8-17.63,6.8c-4.83,0-9.35-1.3-13.24-3.59c5.75-16.94,18.25-30.77,34.28-38.3
			c4.03-1.91,8.3-3.4,12.73-4.44c1.81-0.43,3.66-0.79,5.53-1.05c3.12-0.46,6.32-0.7,9.57-0.7c4.83,0,9.55,0.53,14.08,1.52
			c1.03,0.22,2.04,0.47,3.04,0.75c4.03,1.08,7.91,2.54,11.59,4.34c21.82,10.65,36.85,33.05,36.85,58.97c0,0.47-0.01,0.94-0.02,1.42
			h0.08V416.54z"/>
		<path class="st1" d="M335.3,305.31c0,10.36,4.01,19.79,10.56,26.82c3.54,3.79,7.82,6.88,12.61,9.05
			c4.93,2.23,10.41,3.47,16.17,3.47c3.38,0,6.65-0.43,9.79-1.23c7-1.79,13.27-5.48,18.19-10.46c0-0.01,0.01-0.01,0.02-0.02
			c0.91-0.91,1.76-1.87,2.56-2.87c0.01-0.02,0.02-0.03,0.03-0.04c4.72-4.56,11.13-7.36,18.22-7.36c4.97,0,9.61,1.38,13.57,3.77
			c-3.73,10.65-10.12,20.04-18.39,27.38c-4.84,4.3-10.33,7.9-16.29,10.62c-4.09,1.87-8.4,3.32-12.89,4.32h-0.01
			c-3.05,0.68-6.17,1.15-9.37,1.39c-1.63,0.12-3.28,0.19-4.94,0.19c-4.84,0-9.54-0.53-14.08-1.52h-0.01
			c-5.39-1.18-10.55-3.03-15.35-5.46c-21.43-10.78-36.12-32.98-36.12-58.6c0-36.21,29.36-65.57,65.56-65.57
			c14.55,0,28.01,4.74,38.88,12.77v-82.61h26.69v101.69c-3.36-0.77-6.81-1.3-10.32-1.61c-2.32-0.21-4.68-0.31-7.06-0.31
			c-3.16,0-6.26,0.18-9.32,0.55c-5.66,0.67-11.15,1.92-16.38,3.72c-6.47-4.66-14.41-7.41-22.98-7.41
			C352.91,265.97,335.3,283.58,335.3,305.31z"/>
	</g>
</g>
</svg>
