<?xml version="1.0" encoding="utf-8"?>
<!-- Generator: Adobe Illustrator 25.3.1, SVG Export Plug-In . SVG Version: 6.00 Build 0)  -->
<svg version="1.1" xmlns="http://www.w3.org/2000/svg" xmlns:xlink="http://www.w3.org/1999/xlink" x="0px" y="0px"
	 viewBox="0 0 850.39 850.39" style="enable-background:new 0 0 850.39 850.39;" xml:space="preserve">
<style type="text/css">
	.st0{fill:#575756;}
	.st1{fill:#DF991C;}
	.st2{fill:#2CB19B;}
	.st3{fill:none;}
	.st4{fill:none;stroke:#1D1D1B;stroke-width:0.9921;stroke-miterlimit:10;}
	.st5{fill:none;stroke:#1D1D1B;stroke-width:1.2079;stroke-miterlimit:10;}
	.st6{fill:#FFFFFF;}
	.st7{fill:none;stroke:#DF991C;stroke-miterlimit:10;}
	.st8{fill:none;stroke:#DF991C;stroke-width:0.6056;stroke-miterlimit:10;}
	.st9{fill:none;stroke:#DF991C;stroke-width:0.5894;stroke-miterlimit:10;}
	.st10{fill:none;stroke:#DF991C;stroke-width:1.2063;stroke-miterlimit:10;}
	.st11{fill:none;stroke:#DF991C;stroke-width:0.7258;stroke-miterlimit:10;}
	.st12{fill:none;stroke:#DF991C;stroke-width:0.5116;stroke-miterlimit:10;}
</style>
<g id="Layer_1">
	<g>
		<path class="st0" d="M309.74,324.61h22.24v4.96h-16.82v15.61h14.67v4.89h-14.67v16.55h17.55v4.89h-22.98V324.61z"/>
		<path class="st0" d="M341.63,324.61h5.43v42.01h17.55v4.89h-22.98V324.61z"/>
		<path class="st0" d="M374.59,329.57h-12.66v-4.96h30.69v4.96h-12.6v41.94h-5.43V329.57z"/>
		<path class="st0" d="M400.19,324.61h22.24v4.96h-16.82v15.61h14.67v4.89h-14.67v16.55h17.55v4.89h-22.98V324.61z"/>
	</g>
	<g>
		<path class="st0" d="M389.44,460.97h-11.67v-4.85c-1.26,1.53-5.92,6.01-13.91,6.01c-13.46,0-22.98-10.14-22.98-24.59
			c0-14.54,8.79-24.68,22.26-24.68c8.08,0,12.75,4.49,13.91,6.1v-22.89h12.39V460.97z M365.38,423.81
			c-7.18,0-12.03,5.65-12.03,13.82c0,8.35,5.03,13.55,12.03,13.55c7.54,0,12.03-6.1,12.03-13.55
			C377.41,428.84,372.2,423.81,365.38,423.81z"/>
		<path class="st0" d="M415.38,430.9c4.76,0,8.44,1.44,10.14,2.6v-3.05c0-4.13-3.05-6.91-8.53-6.91c-4.67,0-8.98,1.53-12.48,3.32
			l-4.67-8.44c4.22-2.87,11.31-5.56,18.49-5.56c15.08,0,19.57,7.9,19.57,18.4v29.71h-10.95l-0.81-3.05
			c-2.42,2.6-6.01,4.22-11.4,4.22c-9.51,0-17.59-5.83-17.59-15.71C397.16,437.19,404.43,430.9,415.38,430.9z M417.71,452.53
			c4.67,0,8.08-2.51,8.08-6.46c0-4.13-3.41-6.55-8.17-6.55s-8.08,2.69-8.08,6.55S413.04,452.53,417.71,452.53z"/>
		<path class="st0" d="M448.94,404.16h12.21v9.87h8.8v10.05h-8.8v18.13c0,7,2.15,8.44,6.91,8.44c0.81,0,1.26,0,2.24-0.09v10.59
			c0,0-1.88,0.45-5.29,0.45c-11.22,0-16.16-6.28-16.16-19.03v-18.49h-4.94v-10.05h5.03V404.16z"/>
		<path class="st0" d="M493.91,430.9c4.76,0,8.44,1.44,10.14,2.6v-3.05c0-4.13-3.05-6.91-8.53-6.91c-4.67,0-8.98,1.53-12.48,3.32
			l-4.67-8.44c4.22-2.87,11.31-5.56,18.49-5.56c15.08,0,19.57,7.9,19.57,18.4v29.71h-10.95l-0.81-3.05
			c-2.42,2.6-6.01,4.22-11.4,4.22c-9.51,0-17.59-5.83-17.59-15.71C475.69,437.19,482.96,430.9,493.91,430.9z M496.24,452.53
			c4.67,0,8.08-2.51,8.08-6.46c0-4.13-3.41-6.55-8.17-6.55s-8.08,2.69-8.08,6.55S491.58,452.53,496.24,452.53z"/>
	</g>
	<g>
		<path class="st0" d="M342.34,507.65h-5.21v-6.01h5.21v-2.42c0-11.76,7.09-15.53,14.63-15.53c1.53,0,2.96,0.18,2.96,0.18v6.19
			c0,0-1.17-0.18-2.24-0.18c-5.29,0-8.17,2.87-8.17,9.33v2.42h9.96v6.01h-9.96v40.66h-7.18V507.65z"/>
		<path class="st0" d="M387.85,500.47c14.09,0,24.32,10.5,24.32,24.5c0,14-10.41,24.5-24.41,24.5s-24.32-10.32-24.32-24.5
			C363.44,510.88,373.94,500.47,387.85,500.47z M387.76,543.01c10.05,0,17.23-7.63,17.23-18.04c0-10.32-7.18-18.04-17.23-18.04
			s-17.05,7.81-17.05,18.04C370.71,535.48,377.8,543.01,387.76,543.01z"/>
		<path class="st0" d="M442.33,507.56c-10.68,0-13.82,8.44-13.82,18.4v22.35h-7.09v-46.67h7v7.81c1.62-4.67,6.82-8.98,13.91-8.98
			V507.56z"/>
		<path class="st0" d="M478.77,551.72c1.53,0.81,6.91,3.23,13.37,3.23c6.73,0,12.93-2.06,12.93-9.33v-2.15
			c-0.99,1.35-5.56,6.01-13.73,6.01c-13.55,0-22.44-10.14-22.44-24.59c0-14.45,9.51-24.68,22.89-24.68c7.9,0,12.65,4.31,14,6.1
			v-4.94h11.67v41.02c0,17.5-11.4,23.16-25.22,23.16c-6.46,0-13.01-1.97-17.23-4.31L478.77,551.72z M493.31,511.15
			c-7,0-11.94,5.38-11.94,13.64s5.03,13.73,12.03,13.73c7.18,0,12.03-5.38,12.03-13.73C505.43,516.81,500.58,511.15,493.31,511.15z"
			/>
		<path class="st0" d="M549.59,500.2c14.36,0,25.31,10.59,25.31,24.77c0,14.18-10.59,24.5-25.31,24.5
			c-14.63,0-25.22-10.32-25.22-24.5C524.37,510.7,535.32,500.2,549.59,500.2z M549.59,538.53c7.45,0,12.92-5.56,12.92-13.55
			c0-7.99-5.47-13.82-12.92-13.82s-12.83,5.74-12.83,13.82C536.75,532.96,542.23,538.53,549.59,538.53z"/>
		<path class="st0" d="M604.79,500.2c14.36,0,25.31,10.59,25.31,24.77c0,14.18-10.59,24.5-25.31,24.5
			c-14.63,0-25.22-10.32-25.22-24.5C579.57,510.7,590.51,500.2,604.79,500.2z M604.79,538.53c7.45,0,12.92-5.56,12.92-13.55
			c0-7.99-5.47-13.82-12.92-13.82s-12.83,5.74-12.83,13.82C591.95,532.96,597.43,538.53,604.79,538.53z"/>
		<path class="st0" d="M683.32,548.31h-11.67v-4.85c-1.26,1.53-5.92,6.01-13.91,6.01c-13.46,0-22.98-10.14-22.98-24.59
			c0-14.54,8.79-24.68,22.26-24.68c8.08,0,12.74,4.49,13.91,6.1v-22.89h12.38V548.31z M659.27,511.15
			c-7.18,0-12.03,5.65-12.03,13.82c0,8.35,5.03,13.55,12.03,13.55c7.54,0,12.03-6.1,12.03-13.55
			C671.29,516.18,666.09,511.15,659.27,511.15z"/>
	</g>
</g>
<g id="Layer_2">
	<g>
		<path class="st1" d="M294.34,452.9v1.91c0.07-0.63,0.12-1.27,0.14-1.91H294.34z M226.85,476.2c0.13,0.22,0.26,0.43,0.39,0.64
			c0.12-0.19,0.24-0.38,0.37-0.57C227.36,476.24,227.11,476.22,226.85,476.2z"/>
		<path class="st1" d="M294.34,452.9v1.91c0.07-0.63,0.12-1.27,0.14-1.91H294.34z M226.85,476.2c0.13,0.22,0.26,0.43,0.39,0.64
			c0.12-0.19,0.24-0.38,0.37-0.57C227.36,476.24,227.11,476.22,226.85,476.2z"/>
		<path class="st2" d="M313.33,499.89h-0.06c0.01,0.31,0.01,0.62,0.01,0.93c0,25.75-20.88,46.63-46.63,46.63
			c-13.32,0-25.33-5.58-33.83-14.54l13.02-13.02c5.11,5.46,12.37,8.88,20.44,8.88c15.45,0,27.98-12.53,27.98-27.98
			c0-0.51-0.01-1.01-0.05-1.51c0.05-0.02,0.09-0.04,0.13-0.07v-10.76c-0.73,0.54-1.48,1.06-2.24,1.56
			c-7.32,4.77-16.06,7.55-25.44,7.55c-9.64,0-18.6-2.92-26.03-7.94c-5.35-3.61-9.92-8.29-13.37-13.75c0.12-0.19,0.24-0.38,0.37-0.57
			c1.37,0.1,2.74,0.15,4.13,0.15c6.07,0,11.9-0.96,17.37-2.74c1.45,1.16,3.02,2.17,4.68,3.02c3.82,1.95,8.14,3.05,12.72,3.05
			c4.48,0,8.71-1.05,12.47-2.93c5.91-2.95,10.63-7.93,13.25-14.02c1.07-2.49,1.79-5.18,2.09-7.99c0.07-0.63,0.12-1.27,0.14-1.91
			c0.02-0.38,0.03-0.75,0.03-1.13c0-7.54-2.98-14.38-7.83-19.41c-2.35-2.44-5.13-4.45-8.23-5.91c-3.61-1.7-7.65-2.66-11.92-2.66
			c-2.4,0-4.74,0.3-6.97,0.88c-4.81,1.23-9.13,3.72-12.57,7.09c-0.91,0.89-1.76,1.84-2.55,2.85c-0.01,0.01-0.01,0.01-0.01,0.01
			c-3.32,3.01-7.71,4.84-12.53,4.84c-3.43,0-6.65-0.93-9.42-2.55c4.09-12.05,12.98-21.89,24.38-27.23c2.87-1.36,5.9-2.41,9.05-3.16
			c1.29-0.3,2.61-0.56,3.93-0.74c2.22-0.33,4.49-0.5,6.8-0.5c3.43,0,6.79,0.38,10.01,1.08c0.73,0.16,1.45,0.34,2.16,0.53
			c2.87,0.77,5.63,1.81,8.24,3.09c15.52,7.57,26.21,23.5,26.21,41.93c0,0.34-0.01,0.67-0.01,1.01h0.06V499.89z"/>
		<path class="st1" d="M203.87,420.79c0,7.37,2.85,14.07,7.51,19.08c2.52,2.7,5.56,4.9,8.97,6.44c3.51,1.59,7.4,2.47,11.5,2.47
			c2.4,0,4.73-0.3,6.96-0.88c4.98-1.28,9.44-3.9,12.94-7.44c0-0.01,0.01-0.01,0.01-0.01c0.64-0.64,1.25-1.33,1.82-2.04
			c0.01-0.01,0.01-0.02,0.02-0.03c3.36-3.24,7.92-5.24,12.96-5.24c3.53,0,6.84,0.98,9.65,2.68c-2.65,7.57-7.2,14.25-13.08,19.47
			c-3.44,3.06-7.34,5.62-11.59,7.55c-2.91,1.33-5.97,2.36-9.17,3.07h-0.01c-2.17,0.49-4.39,0.82-6.67,0.99
			c-1.16,0.09-2.33,0.13-3.51,0.13c-3.44,0-6.78-0.38-10.01-1.08h-0.01c-3.84-0.84-7.5-2.16-10.92-3.88
			c-15.24-7.67-25.69-23.45-25.69-41.67c0-25.75,20.88-46.63,46.63-46.63c10.35,0,19.92,3.37,27.65,9.08v-58.75h18.98v72.32
			c-2.39-0.55-4.84-0.93-7.34-1.14c-1.65-0.15-3.33-0.22-5.02-0.22c-2.24,0-4.45,0.13-6.63,0.39c-4.03,0.47-7.93,1.37-11.65,2.65
			c-4.6-3.32-10.25-5.27-16.34-5.27C216.39,392.81,203.87,405.34,203.87,420.79z"/>
	</g>
</g>
</svg>
